PathFileType	4	(X/Y/Z)	11_2_98_p1_0-184.trc
DataRate	CameraRate	NumFrames	NumMarkers	Units	OrigDataRate	OrigDataStartFrame	OrigNumFrames
59.0	59.0	6	27	m	59.0	69	185
Frame#	Time	RHip			RKnee			RAnkle			RBigToe			RSmallToe			RHeel			LHip			LKnee			LAnkle			LBigToe			LSmallToe			LHeel			Neck			Head			Nose			RShoulder			RElbow			RWrist			RThumb			RIndex			RPinky			LShoulder			LElbow			LWrist			LThumb			LIndex			LPinky			
		X1	Y1	Z1	X2	Y2	Z2	X3	Y3	Z3	X4	Y4	Z4	X5	Y5	Z5	X6	Y6	Z6	X7	Y7	Z7	X8	Y8	Z8	X9	Y9	Z9	X10	Y10	Z10	X11	Y11	Z11	X12	Y12	Z12	X13	Y13	Z13	X14	Y14	Z14	X15	Y15	Z15	X16	Y16	Z16	X17	Y17	Z17	X18	Y18	Z18	X19	Y19	Z19	X20	Y20	Z20	X21	Y21	Z21	X22	Y22	Z22	X23	Y23	Z23	X24	Y24	Z24	X25	Y25	Z25	X26	Y26	Z26	X27	Y27	Z27	
69	1.1694915254237288	0.34895449580538673	0.617369816851018	0.5804796344870393	0.35387745565388007	0.6473090759692889	1.0173108683353467	0.3512737753214741	0.7699782805693722	1.4661277338996805	0.35286004903349766	0.5519190378767167	1.4626432198721384	0.40406895111248275	0.577623267859428	1.461654415793856	0.3326143334716853	0.8204065042720503	1.515848129795881	0.15612575969895479	0.5914027223926558	0.5915106209221408	0.16510590040240905	0.6524445874926159	1.0319321512913462	0.17204529735761734	0.7172135633659696	1.4452710876936976	0.20537939373417763	0.5612252970378154	1.478837436672239	0.14015276531741222	0.582333663297713	1.463661678828716	0.1898081731441915	0.771074142116441	1.4949146398470619	0.2236733561930783	0.5864676764990598	0.08478179860993067	0.21350525308533885	0.5426147797257188	-0.13343441091317773	0.2186153553079189	0.4575249581206081	-0.011565068131466344	0.3784310865851072	0.5374968226956429	0.13958437602120563	0.5407773901337821	0.41336861921911544	0.1538615735140449	0.4946952382838127	0.3785172690251555	-0.01624111509357734	0.38676822962265084	0.48284563697489896	-0.0381135489430112	0.3904248525120573	0.45377553493502404	-0.04488952079019654	0.44807523211859096	0.4215543350558747	-0.029217187076933528	0.09969636895373077	0.5825382867493863	0.17260876442701048	0.03947126712833377	0.5666071729210319	0.4273823902727781	0.04042776362807924	0.4799766386049953	0.6573553834264653	0.0694242715568743	0.4118595241251931	0.7429214821205953	0.059394729787196406	0.3949170390121309	0.7502680822040249	0.024064544650937703	0.4695454155304383	0.766348688621698
70	1.1864406779661016	0.348897997201548	0.6175330749862927	0.5805345560533731	0.3538498624497272	0.6472804392225036	1.0172119711969114	0.35126123937524295	0.7698969383352878	1.4661296897627847	0.35275124394752805	0.5522864792243486	1.4629056573018964	0.40392302763296983	0.5782532579597291	1.4619105544861812	0.33195806075047873	0.817007665747994	1.5138855161904725	0.15559006638610373	0.5914950989397261	0.595159536572883	0.16440152588258217	0.6529509490535033	1.0363877154913317	0.1720491536986906	0.7170892437479701	1.4452713814926597	0.20547652910973246	0.5609777650230083	1.478782470567695	0.14013528622003038	0.5822129288085672	1.463723605335124	0.18971222237173277	0.7712931290470152	1.4952001306968126	0.22391673745480475	0.58763084107171	0.09234130933257456	0.21347058434726168	0.5425183038748024	-0.1334284182723954	0.21854772231259195	0.45731756632601084	-0.01152699050020606	0.3780327141862813	0.536416725980989	0.13615606646835002	0.5407921105052327	0.4134470480989956	0.15385347746426256	0.4914434379438989	0.3685592154542768	-0.01980786633225555	0.3865889174734525	0.4838444180146629	-0.03926694602746645	0.38390559396758195	0.4239472146263879	-0.037166125940022464	0.4480537574917441	0.4221608481696768	-0.029278734037949564	0.09965784109983677	0.5825350724762699	0.1726488342768808	0.03894619530665259	0.5670207074000565	0.43077687155669764	0.04049391023102039	0.479927769672668	0.657196959143166	0.07109448427315022	0.4239052434272537	0.7465606041818807	0.05944043235700002	0.3948006036897598	0.7499860256853901	0.023883855488043792	0.46866060883198973	0.7658710517829932
71	1.2033898305084745	0.3488525241322892	0.6174399956826924	0.5804906268389014	0.35314247547976646	0.6477580847145449	1.0217078269253987	0.3517921495974161	0.7683438820642965	1.4698269301984854	0.3527687533311773	0.5523514336265145	1.4629507571813902	0.4037786109074147	0.5782947338482327	1.4618997920692074	0.3331116464902703	0.8189544296862135	1.5194751386765246	0.15546502182306793	0.5917646423483202	0.5952748293364047	0.16433792797081903	0.6531732907509654	1.036513576730208	0.17192680845042066	0.7170067906080853	1.4454127444118237	0.2052635493260573	0.561032591888536	1.478797181175697	0.1400523201176268	0.582456905025848	1.4640422750179047	0.18983157497185804	0.7712399205728333	1.495206897581632	0.22357778691605562	0.5864022629676461	0.08844495661169349	0.21353976461735705	0.5424354685059039	-0.1334920152425323	0.21854720594637922	0.45724159198757025	-0.011523243840162008	0.378069323698169	0.536350232744762	0.13614070149189866	0.5407642988561538	0.41340426814971887	0.15379883047608234	0.49454669936165285	0.3785747673968892	-0.019525700024378072	0.3906148197497807	0.4695759183652992	-0.042570002706093624	0.38828042770630794	0.4442443228280429	-0.048496249439692544	0.4503783217102919	0.4309093319740981	-0.029059395554249585	0.09403597800540897	0.595756972390418	0.17428461449053928	0.03928206262680189	0.5670162488919588	0.4274690643848923	0.034128978312604995	0.49238435927880697	0.660991315777278	0.06942225324869791	0.4111859583381068	0.7422342882712794	0.059455130415292975	0.39441408516023474	0.7496587198847936	0.023840095188215928	0.46937594110087016	0.7662855644877172
72	1.2203389830508475	0.3528709199496137	0.6184930448242623	0.5804357895838257	0.35214477780699793	0.6461519630202912	1.016825888774293	0.34709361798861726	0.7669051963533952	1.4695860294935725	0.34964334595565066	0.5390596789309776	1.4560898904070423	0.40299079298151996	0.5773493378298614	1.4613046357125663	0.33173089583325194	0.8168663493902455	1.5144072675422477	0.1599285533289918	0.5637534699916782	0.5920916345464834	0.16423226846421993	0.6530240031660477	1.0363623872610737	0.1728031894017658	0.7195794324947165	1.45114087084943	0.2051707417359761	0.5609884300379869	1.4787772127989138	0.1400802666102914	0.5829387927754028	1.4644717458158167	0.18374533137861415	0.7882679562622478	1.5045924339417045	0.21999236016763155	0.5846722299000251	0.08855865506986957	0.21348719508820777	0.5427455647384105	-0.13344722978029588	0.21662571593179586	0.4455257798350551	-0.011885890598342403	0.37841797600861377	0.5358050391042315	0.1400057733853656	0.5407535350169391	0.4133095899746241	0.1538200323815025	0.49461344384651185	0.37874729026373555	-0.019499692385924174	0.39114431715061276	0.47047655057686516	-0.0399783547680655	0.39489852527050884	0.4561031567798922	-0.04492016533269351	0.4530629518765785	0.44022185178070083	-0.028674568739812584	0.09401390942609689	0.595770178775093	0.17426141217609536	0.03918465298816708	0.5670443551120917	0.4274639239559454	0.03299296808000891	0.47921346454689934	0.6500323515245613	0.07083367768452638	0.42400781581086994	0.7463177509776627	0.059537773680636424	0.3950048406853068	0.7500244397777337	0.022326903088599328	0.46899419948230925	0.762471008465134
73	1.2372881355932204	0.3528568077874939	0.6185650693750507	0.5805736090844623	0.3529743572413123	0.6473609010799993	1.0215645069583705	0.34719437200322556	0.7666610884134972	1.469513561122223	0.3496596702318116	0.5392525263117575	1.4562418641317931	0.4032401103481189	0.5775514868319486	1.4614842200701748	0.33178774081405016	0.8166581337090273	1.5144812666476104	0.15385280902780854	0.5773411481013683	0.5959231774248707	0.1649875477031235	0.6525307508820449	1.0318844485181322	0.17190694380930913	0.7173379523794816	1.4454309766384565	0.20521735148193565	0.5612440163788242	1.4788561593261254	0.14013513147907933	0.5829475383393029	1.464251109640336	0.18983105531176128	0.7712548740979231	1.495155261245702	0.22395798298573583	0.5874679179178618	0.09237677001840001	0.21350891942774178	0.5427549844868547	-0.13343881149262715	0.2166215201454558	0.445595562849001	-0.01186681234899221	0.3784400414842816	0.5357962121911198	0.1400020808748401	0.5407343796116757	0.41334303892204743	0.1538030941025973	0.4976545426546344	0.38900567530134544	-0.019171236157665705	0.39116853996918677	0.4705693467981212	-0.04003292507708186	0.39496366340779443	0.45631176334803525	-0.04499360154068614	0.45309822043282244	0.4403706353958189	-0.028668452089564988	0.09407579174679995	0.5956413361511567	0.17444286199703568	0.03924567871169544	0.5670050058158537	0.4274992747699808	0.032253749718334127	0.47987134998525544	0.6536239327086354	0.06730206759381702	0.421481286164388	0.7456708339284143	0.05958093594581575	0.3948212205521388	0.7497612517955077	0.022306015922830862	0.46934819213824763	0.7626596575389561
74	1.2542372881355932	0.35326675446774936	0.617744857481795	0.5840935601991116	0.3529963470030652	0.6477531602392411	1.0216351954103882	0.34723319103807804	0.7665921828796647	1.4695314898431304	0.349703805790349	0.5395051751102597	1.4564198981659835	0.40338846040949444	0.5777913605854322	1.4616429119712386	0.33183228444856966	0.8165877551100621	1.5146162963917698	0.1538537810975083	0.5772517062412812	0.5958508615409076	0.16427648715454143	0.6508350387906776	1.0264692971007878	0.17197506617555317	0.7174091523160046	1.4453423951406883	0.20507096603126654	0.5610045185672654	1.4786875097078362	0.1401266859770868	0.5829129932609555	1.4641866767413605	0.18998816648615832	0.7712857327339198	1.4950856717870638	0.2239400874332186	0.587416555447304	0.09237926764156831	0.21347373888686857	0.5426944770188783	-0.13339937952957953	0.21659846211404948	0.44561271607185	-0.011863744332480355	0.3784432182708816	0.5357176003858326	0.1400086507002295	0.5407753314581584	0.41340317574354335	0.15377563699549135	0.4946317783073519	0.3788233630025283	-0.019500489678439203	0.391138506837645	0.4704213978297835	-0.039969266110482515	0.3908597263378449	0.45367842098473266	-0.04478704172724023	0.45304108361234585	0.44021222013394223	-0.02863850817400422	0.09405956029030219	0.5956588711879927	0.17443001974714484	0.03925501853323145	0.5670263224129636	0.42750962239212376	0.032329185994993716	0.47983252700997137	0.6536701299988235	0.07095785473977416	0.42398401074955294	0.7463832160924936	0.05971535056294285	0.39500579080888704	0.7499477950161509	0.02273330708375314	0.46932781004351226	0.762575205808842
